<?xml version="1.0" standalone="no"?>
<!DOCTYPE svg PUBLIC "-//W3C//DTD SVG 20010904//EN"
 "http://www.w3.org/TR/2001/REC-SVG-20010904/DTD/svg10.dtd">
<svg version="1.0" xmlns="http://www.w3.org/2000/svg"
 width="512.000000pt" height="512.000000pt" viewBox="0 0 512.000000 512.000000"
 preserveAspectRatio="xMidYMid meet">

<g transform="translate(0.000000,512.000000) scale(0.100000,-0.100000)"
fill="#000000" stroke="none">
<path d="M965 5109 c-31 -17 -935 -921 -951 -951 -8 -15 -14 -37 -14 -50 0
-16 199 -221 756 -779 416 -416 755 -761 753 -767 -2 -6 -343 -352 -756 -770
-526 -531 -753 -767 -753 -782 0 -12 5 -31 11 -43 16 -32 919 -936 953 -953
17 -10 38 -13 54 -9 16 4 312 292 779 756 415 412 758 749 763 749 5 0 351
-340 768 -755 533 -529 766 -755 782 -755 11 0 33 6 48 14 33 18 935 922 951
953 6 12 11 31 11 43 0 15 -231 254 -752 781 -414 417 -753 764 -753 769 0 6
339 352 753 770 518 523 752 765 752 780 0 12 -6 33 -14 48 -18 33 -922 935
-953 951 -12 6 -31 11 -43 11 -15 0 -251 -227 -782 -755 -419 -415 -765 -755
-769 -755 -5 0 -350 340 -768 755 -787 783 -774 772 -826 744z m790 -1008
c550 -549 757 -750 778 -753 15 -3 39 -3 55 0 20 3 228 205 780 756 l752 751
367 -368 368 -367 -751 -752 c-551 -552 -753 -760 -756 -780 -3 -16 -3 -40 0
-55 3 -21 205 -229 756 -781 l751 -752 -368 -367 -367 -368 -752 752 c-581
580 -760 752 -784 757 -17 4 -44 2 -60 -4 -17 -6 -339 -321 -777 -758 l-747
-747 -367 367 -368 368 751 752 c551 552 753 760 756 781 3 15 3 39 0 55 -3
20 -205 228 -756 780 l-751 752 365 365 c201 201 367 365 370 365 2 0 342
-337 755 -749z"/>
</g>
</svg>
