<?xml version="1.0" standalone="no"?>
<!DOCTYPE svg PUBLIC "-//W3C//DTD SVG 20010904//EN"
 "http://www.w3.org/TR/2001/REC-SVG-20010904/DTD/svg10.dtd">
<svg version="1.0" xmlns="http://www.w3.org/2000/svg"
 width="512.000000pt" height="512.000000pt" viewBox="0 0 512.000000 512.000000"
 preserveAspectRatio="xMidYMid meet">

<g transform="translate(0.000000,512.000000) scale(0.100000,-0.100000)"
fill="#000000" stroke="none">
<path d="M3390 4475 l-625 -625 536 0 536 0 61 -31 c99 -49 152 -128 160 -240
7 -97 -17 -159 -87 -229 -98 -98 20 -91 -1431 -88 l-1265 3 -45 24 c-37 20 -7
-16 174 -202 l218 -226 1107 -3 c1101 -3 1106 -3 1152 -24 151 -70 222 -247
155 -389 -47 -101 -115 -155 -220 -174 -80 -15 -2431 -15 -2507 -1 -30 6 -71
19 -92 29 -27 14 -34 15 -26 4 11 -12 -87 -113 -579 -606 l-592 -592 19 -80
c126 -523 525 -902 1056 -1001 95 -18 173 -19 1475 -19 1514 0 1428 -3 1633
61 399 127 724 452 851 851 64 205 61 118 61 1638 0 1282 -1 1387 -18 1473
-80 417 -337 762 -702 944 -113 56 -205 88 -355 122 -23 5 -90 -59 -650 -619z
m470 -2631 c73 -22 159 -107 185 -183 23 -69 17 -169 -14 -229 -31 -61 -94
-118 -157 -142 -54 -20 -70 -20 -1314 -20 -1236 0 -1260 0 -1313 20 -115 43
-179 132 -185 257 -2 39 1 87 7 106 19 57 68 125 110 153 85 56 15 53 1372 54
1119 0 1261 -2 1309 -16z"/>
</g>
</svg>
